<svg xmlns="http://www.w3.org/2000/svg" version="1.1" xmlns:xlink="http://www.w3.org/1999/xlink" width="110" height="112"><svg width="110" height="112" viewBox="0 0 110 112" fill="none" xmlns="http://www.w3.org/2000/svg">
<mask id="SvgjsMask1009" style="mask-type:luminance" maskUnits="userSpaceOnUse" x="0" y="0" width="110" height="112">
<path d="M0 0H110V112H0V0Z" fill="white"></path>
</mask>
<g mask="url(#mask0_3251_16969)">
<path d="M103.761 40.9062C99.9377 37.0833 94.6564 34.7188 88.8231 34.7188H76.146V21.125C76.146 9.45833 66.6877 0 55.021 0C49.1877 0 43.9116 2.36458 40.0835 6.1875C36.2606 10.0104 33.896 15.2917 33.896 21.125L33.9012 34.7188H21.2241C9.55746 34.7188 0.0991211 44.1771 0.0991211 55.8385C0.0991211 61.6771 2.46371 66.9583 6.28662 70.776C10.1095 74.599 15.3908 76.9635 21.2241 76.9635H33.9012V90.5573C33.9012 102.224 43.3595 111.682 55.0262 111.682C60.8543 111.682 66.1356 109.318 69.9637 105.495C73.7814 101.672 76.146 96.3906 76.1512 90.5573V76.9635L88.8231 76.9688C100.485 76.9635 109.948 67.5052 109.948 55.8438C109.948 50.0104 107.583 44.7292 103.761 40.9062Z" fill="#3ACEB5"></path>
</g>
<mask id="SvgjsMask1008" style="mask-type:luminance" maskUnits="userSpaceOnUse" x="0" y="33" width="35" height="45">
<path d="M0 33.8438H34.3646V77.8438H0V33.8438Z" fill="white"></path>
</mask>
<g mask="url(#mask1_3251_16969)">
<path d="M33.9012 76.9635H21.2241C15.3908 76.9635 10.1095 74.599 6.28662 70.776C2.46371 66.9583 0.0991211 61.6771 0.0991211 55.8385C0.0991211 44.1771 9.55746 34.7188 21.2241 34.7188H33.9012V76.9635Z" fill="#3ACEB5"></path>
</g>
<mask id="SvgjsMask1007" style="mask-type:luminance" maskUnits="userSpaceOnUse" x="33" y="0" width="45" height="36">
<path d="M33.0312 0H77.0312V35.1771H33.0312V0Z" fill="white"></path>
</mask>
<g mask="url(#mask2_3251_16969)">
<path d="M76.146 34.7188H33.9012L33.896 21.125C33.896 15.2917 36.2606 10.0104 40.0835 6.1875C43.9116 2.36458 49.1877 0 55.021 0C66.6877 0 76.146 9.45833 76.146 21.125V34.7188Z" fill="#3ACEB5"></path>
</g>
<path d="M33.9009 34.7188H76.1457V76.9635H33.9009V34.7188Z" fill="#6052FF"></path>
<mask id="SvgjsMask1006" style="mask-type:luminance" maskUnits="userSpaceOnUse" x="75" y="33" width="35" height="45">
<path d="M75.6978 33.8438H110V77.8438H75.6978V33.8438Z" fill="white"></path>
</mask>
<g mask="url(#mask3_3251_16969)">
<path d="M88.8226 76.9688L76.1455 76.9635V34.7188H88.8226C94.6559 34.7188 99.9372 37.0833 103.76 40.9062C107.583 44.7292 109.948 50.0104 109.948 55.8438C109.948 67.5052 100.484 76.9635 88.8226 76.9688Z" fill="#9955F6"></path>
</g>
<mask id="SvgjsMask1005" style="mask-type:luminance" maskUnits="userSpaceOnUse" x="33" y="76" width="45" height="36">
<path d="M33.0312 76.5104H77.0312V112H33.0312V76.5104Z" fill="white"></path>
</mask>
<g mask="url(#mask4_3251_16969)">
<path d="M69.9634 105.495C66.1353 109.318 60.854 111.682 55.0259 111.682C43.3592 111.682 33.9009 102.224 33.9009 90.5573V76.9636H76.1509V90.5573C76.1457 96.3906 73.7811 101.672 69.9634 105.495Z" fill="#9955F6"></path>
</g>
<path d="M65.9116 47.2396C64.7658 46.0938 63.2606 45.5156 61.7606 45.5156C60.2554 45.5156 58.7502 46.0938 57.6043 47.2396L55.1147 49.7292L52.4429 47.0573C50.1512 44.7604 46.4272 44.7604 44.1356 47.0573C42.9845 48.2031 42.4116 49.7084 42.4116 51.2084C42.4116 52.7084 42.9845 54.2136 44.1356 55.3646L46.8075 58.0313L55.1147 66.3386L63.422 58.0313L65.9168 55.5417C68.2085 53.2552 68.2085 49.5313 65.9116 47.2396Z" fill="#3ACEB5"></path>
</svg><style>@media (prefers-color-scheme: light) { :root { filter: none; } }
@media (prefers-color-scheme: dark) { :root { filter: none; } }
</style></svg>